<svg width="81" height="32" viewBox="0 0 81 32" fill="none" xmlns="http://www.w3.org/2000/svg">
<g clip-path="url(#clip0)">
<path d="M22.0886 27.0149C24.3871 27.0149 26.2976 25.6716 27.1035 24.0896V26.6866H31.4021V4H27.1035V13.403C26.2379 11.8209 24.6856 10.7164 22.1782 10.7164C18.2677 10.7164 15.3125 13.7313 15.3125 18.8657V19.1045C15.3125 24.2985 18.2976 27.0149 22.0886 27.0149ZM23.3722 23.6418C21.2229 23.6418 19.7304 22.1194 19.7304 19.0149V18.7761C19.7304 15.6716 21.0737 14.0299 23.4916 14.0299C25.8498 14.0299 27.2229 15.6119 27.2229 18.7164V18.9552C27.2229 22.1194 25.6409 23.6418 23.3722 23.6418Z" fill="#121A24"/>
<path d="M38.4534 27.0149C40.9011 27.0149 42.2743 26.0597 43.1698 24.806V26.6866H47.3787V16.5075C47.3787 12.2687 44.6623 10.7164 40.8414 10.7164C37.0205 10.7164 34.0951 12.3582 33.8265 16.0597H37.916C38.0951 14.7164 38.8713 13.8507 40.5728 13.8507C42.5429 13.8507 43.1101 14.8657 43.1101 16.7164V17.3433H41.3489C36.5728 17.3433 33.2295 18.7164 33.2295 22.3582C33.2295 25.6418 35.6175 27.0149 38.4534 27.0149ZM39.7369 24C38.1548 24 37.4683 23.2537 37.4683 22.1194C37.4683 20.4478 38.931 19.9104 41.4384 19.9104H43.1101V21.2239C43.1101 22.9552 41.6474 24 39.7369 24Z" fill="#121A24"/>
<path d="M50.147 26.6866H54.4456V11.0746H50.147V26.6866ZM52.2665 8.95522C53.6694 8.95522 54.7441 7.9403 54.7441 6.59702C54.7441 5.25373 53.6694 4.23881 52.2665 4.23881C50.8933 4.23881 49.8187 5.25373 49.8187 6.59702C49.8187 7.9403 50.8933 8.95522 52.2665 8.95522Z" fill="#121A24"/>
<path d="M57.4765 26.6866H61.775V4H57.4765V26.6866Z" fill="#121A24"/>
<path d="M71.0634 32L79.4917 11.0746H75.3711L71.8499 20.4478L68.0589 11.0746H63.4021L69.6523 25.1953L66.8779 32H71.0634Z" fill="#121A24"/>
<path d="M0.5 32H4.6875L17.5766 0H13.4916L0.5 32Z" fill="url(#paint0_linear)"/>
</g>
<defs>
<linearGradient id="paint0_linear" x1="9.38727" y1="-0.222885" x2="9.38727" y2="30" gradientUnits="userSpaceOnUse">
<stop stop-color="#1BEBB9"/>
<stop offset="1" stop-color="#FF9254"/>
</linearGradient>
<clipPath id="clip0">
<rect width="80" height="32" fill="white" transform="translate(0.5)"/>
</clipPath>
</defs>
</svg>
